<mxfile host="app.diagrams.net" modified="2023-06-10T20:19:11.820Z" agent="Mozilla/5.0 (Windows NT 10.0; Win64; x64) AppleWebKit/537.36 (KHTML, like Gecko) Chrome/114.0.0.0 Safari/537.36" etag="1dlyOwkdxw2t_8Q2lWO6" version="21.3.8" type="github">
  <diagram name="Page-1" id="jCBXAWtXNqudpjwkQiGo">
    <mxGraphModel dx="1173" dy="1804" grid="1" gridSize="10" guides="1" tooltips="1" connect="1" arrows="1" fold="1" page="1" pageScale="1" pageWidth="827" pageHeight="1169" math="0" shadow="0">
      <root>
        <mxCell id="0" />
        <mxCell id="1" parent="0" />
        <mxCell id="bucvXIIjWARCfowaOwl--13" style="edgeStyle=orthogonalEdgeStyle;rounded=0;orthogonalLoop=1;jettySize=auto;html=1;entryX=0.5;entryY=0;entryDx=0;entryDy=0;" edge="1" parent="1" source="dDj49uLqHvv3kT1G5Hj7-1" target="dDj49uLqHvv3kT1G5Hj7-3">
          <mxGeometry relative="1" as="geometry" />
        </mxCell>
        <mxCell id="dDj49uLqHvv3kT1G5Hj7-1" value="Control clientes" style="html=1;overflow=block;blockSpacing=1;whiteSpace=wrap;fontSize=16.7;fontColor=#ffffff;align=center;spacing=3.8;strokeColor=#B20000;strokeOpacity=100;rounded=1;absoluteArcSize=1;arcSize=9;strokeWidth=2.3;lucidId=-~4517-Tyvn_;fillColor=#e51400;" parent="1" vertex="1">
          <mxGeometry x="856" y="75" width="120" height="120" as="geometry" />
        </mxCell>
        <mxCell id="bucvXIIjWARCfowaOwl--14" style="edgeStyle=orthogonalEdgeStyle;rounded=0;orthogonalLoop=1;jettySize=auto;html=1;exitX=0;exitY=0.5;exitDx=0;exitDy=0;entryX=1;entryY=0.5;entryDx=0;entryDy=0;" edge="1" parent="1" source="dDj49uLqHvv3kT1G5Hj7-3" target="dDj49uLqHvv3kT1G5Hj7-4">
          <mxGeometry relative="1" as="geometry" />
        </mxCell>
        <mxCell id="dDj49uLqHvv3kT1G5Hj7-3" value="Iinicio&#xa;(index)" style="html=1;overflow=block;blockSpacing=1;whiteSpace=wrap;fontSize=16.7;fontColor=#ffffff;align=center;spacing=9;strokeColor=#A50040;strokeOpacity=100;rounded=1;absoluteArcSize=1;arcSize=9;strokeWidth=2.3;lucidId=ra55raOk~4vb;fillColor=#d80073;" parent="1" vertex="1">
          <mxGeometry x="856" y="246" width="120" height="90" as="geometry" />
        </mxCell>
        <mxCell id="bucvXIIjWARCfowaOwl--16" style="edgeStyle=orthogonalEdgeStyle;rounded=0;orthogonalLoop=1;jettySize=auto;html=1;exitX=0;exitY=0.5;exitDx=0;exitDy=0;entryX=1;entryY=0.5;entryDx=0;entryDy=0;" edge="1" parent="1" source="dDj49uLqHvv3kT1G5Hj7-4" target="dDj49uLqHvv3kT1G5Hj7-5">
          <mxGeometry relative="1" as="geometry" />
        </mxCell>
        <mxCell id="dDj49uLqHvv3kT1G5Hj7-4" value="Ver tabla" style="html=1;overflow=block;blockSpacing=1;whiteSpace=wrap;rhombus;fontSize=16.7;fontColor=#000000;align=center;spacing=3.8;strokeColor=#BD7000;strokeOpacity=100;rounded=1;absoluteArcSize=1;arcSize=9;strokeWidth=2.3;lucidId=7a55EZrOVwHj;fillColor=#f0a30a;" parent="1" vertex="1">
          <mxGeometry x="707" y="246" width="120" height="90" as="geometry" />
        </mxCell>
        <mxCell id="dDj49uLqHvv3kT1G5Hj7-5" value="Tabla de clientes" style="html=1;overflow=block;blockSpacing=1;whiteSpace=wrap;fontSize=16.7;fontColor=#ffffff;align=center;spacing=9;strokeColor=#3A5431;strokeOpacity=100;rounded=1;absoluteArcSize=1;arcSize=9;strokeWidth=2.3;lucidId=sb55wHR1h_1L;fillColor=#6d8764;" parent="1" vertex="1">
          <mxGeometry x="540" y="246" width="120" height="90" as="geometry" />
        </mxCell>
        <mxCell id="dDj49uLqHvv3kT1G5Hj7-6" value="C.pagos" style="html=1;overflow=block;blockSpacing=1;whiteSpace=wrap;rhombus;fontSize=16.7;fontColor=#000000;align=center;spacing=3.8;strokeColor=#BD7000;strokeOpacity=100;rounded=1;absoluteArcSize=1;arcSize=9;strokeWidth=2.3;lucidId=Wb55GumcfXWv;fillColor=#f0a30a;" parent="1" vertex="1">
          <mxGeometry x="540" y="135" width="120" height="90" as="geometry" />
        </mxCell>
        <mxCell id="dDj49uLqHvv3kT1G5Hj7-7" value="" style="html=1;jettySize=18;whiteSpace=wrap;fontSize=13;strokeColor=#5E5E5E;strokeWidth=1.5;rounded=1;arcSize=12;edgeStyle=orthogonalEdgeStyle;startArrow=none;endArrow=block;endFill=1;exitX=0.5;exitY=-0.012;exitPerimeter=0;entryX=0.5;entryY=0.996;entryPerimeter=0;lucidId=~b55l4OIITTA;" parent="1" source="dDj49uLqHvv3kT1G5Hj7-5" target="dDj49uLqHvv3kT1G5Hj7-6" edge="1">
          <mxGeometry width="100" height="100" relative="1" as="geometry">
            <Array as="points" />
          </mxGeometry>
        </mxCell>
        <mxCell id="dDj49uLqHvv3kT1G5Hj7-8" value="&lt;div style=&quot;display: flex; justify-content: center; text-align: center; align-items: baseline; font-size: 0; line-height: 1.25;margin-top: -2px;&quot;&gt;&lt;span&gt;&lt;a href=&quot;http://C.datos&quot;&gt;&lt;span style=&quot;font-size:16.7px;color:#333333;&quot;&gt;C.datos&lt;/span&gt;&lt;/a&gt;&lt;/span&gt;&lt;/div&gt;" style="html=1;overflow=block;blockSpacing=1;whiteSpace=wrap;rhombus;fontSize=13;spacing=3.8;strokeColor=#BD7000;strokeOpacity=100;rounded=1;absoluteArcSize=1;arcSize=9;strokeWidth=2.3;lucidId=lc55fG3NwJh9;fillColor=#f0a30a;fontColor=#000000;" parent="1" vertex="1">
          <mxGeometry x="540" y="375" width="120" height="90" as="geometry" />
        </mxCell>
        <mxCell id="dDj49uLqHvv3kT1G5Hj7-9" value="" style="html=1;jettySize=18;whiteSpace=wrap;fontSize=13;strokeColor=#5E5E5E;strokeWidth=1.5;rounded=1;arcSize=12;edgeStyle=orthogonalEdgeStyle;startArrow=none;endArrow=block;endFill=1;exitX=0.5;exitY=1.012;exitPerimeter=0;entryX=0.5;entryY=0.004;entryPerimeter=0;lucidId=xc55j_4C4txd;" parent="1" source="dDj49uLqHvv3kT1G5Hj7-5" target="dDj49uLqHvv3kT1G5Hj7-8" edge="1">
          <mxGeometry width="100" height="100" relative="1" as="geometry">
            <Array as="points" />
          </mxGeometry>
        </mxCell>
        <mxCell id="dDj49uLqHvv3kT1G5Hj7-10" value="C.Plan" style="html=1;overflow=block;blockSpacing=1;whiteSpace=wrap;rhombus;fontSize=16.7;fontColor=#000000;align=center;spacing=3.8;strokeColor=#BD7000;strokeOpacity=100;rounded=1;absoluteArcSize=1;arcSize=9;strokeWidth=2.3;lucidId=Dc55BJOq.~ja;fillColor=#f0a30a;" parent="1" vertex="1">
          <mxGeometry x="390" y="255" width="120" height="90" as="geometry" />
        </mxCell>
        <mxCell id="dDj49uLqHvv3kT1G5Hj7-11" value="" style="html=1;jettySize=18;whiteSpace=wrap;fontSize=13;strokeColor=#5E5E5E;strokeWidth=1.5;rounded=1;arcSize=12;edgeStyle=orthogonalEdgeStyle;startArrow=none;endArrow=block;endFill=1;exitX=-0.009;exitY=0.5;exitPerimeter=0;entryX=0.991;entryY=0.5;entryPerimeter=0;lucidId=Nc55K~NAN.iO;" parent="1" source="dDj49uLqHvv3kT1G5Hj7-5" target="dDj49uLqHvv3kT1G5Hj7-10" edge="1">
          <mxGeometry width="100" height="100" relative="1" as="geometry">
            <Array as="points" />
          </mxGeometry>
        </mxCell>
        <mxCell id="dDj49uLqHvv3kT1G5Hj7-12" value="" style="html=1;jettySize=18;whiteSpace=wrap;fontSize=13.3;fontColor=#333333;fontStyle=1;align=center;strokeColor=#5E5E5E;strokeWidth=1.5;rounded=1;arcSize=12;edgeStyle=orthogonalEdgeStyle;startArrow=none;endArrow=block;endFill=1;exitX=0.009;exitY=0.5;exitPerimeter=0;lucidId=ad55AOa1RnGk;" parent="1" source="dDj49uLqHvv3kT1G5Hj7-10" edge="1">
          <mxGeometry width="100" height="100" relative="1" as="geometry">
            <Array as="points" />
            <mxPoint x="331" y="300" as="targetPoint" />
          </mxGeometry>
        </mxCell>
        <mxCell id="dDj49uLqHvv3kT1G5Hj7-13" value="Sí" style="text;html=1;resizable=0;labelBackgroundColor=default;align=center;verticalAlign=middle;fontStyle=1;fontColor=#333333;fontSize=13.3;" parent="dDj49uLqHvv3kT1G5Hj7-12" vertex="1">
          <mxGeometry relative="1" as="geometry">
            <mxPoint as="offset" />
          </mxGeometry>
        </mxCell>
        <mxCell id="dDj49uLqHvv3kT1G5Hj7-14" value="Se muestra lista clientes&#xa;&#39;plan&#39;" style="html=1;overflow=block;blockSpacing=1;whiteSpace=wrap;fontSize=16.7;fontColor=#ffffff;align=center;spacing=9;strokeColor=#3A5431;strokeOpacity=100;rounded=1;absoluteArcSize=1;arcSize=9;strokeWidth=2.3;lucidId=rd55_MLI0KpR;fillColor=#6d8764;" parent="1" vertex="1">
          <mxGeometry x="210" y="255" width="120" height="90" as="geometry" />
        </mxCell>
        <mxCell id="dDj49uLqHvv3kT1G5Hj7-15" value="Se muestra lista clientes&#xa;&#39;pagos&#39;" style="html=1;overflow=block;blockSpacing=1;whiteSpace=wrap;fontSize=16.7;fontColor=#ffffff;align=center;spacing=9;strokeColor=#3A5431;strokeOpacity=100;rounded=1;absoluteArcSize=1;arcSize=9;strokeWidth=2.3;lucidId=he55-6mI.Ir_;fillColor=#6d8764;" parent="1" vertex="1">
          <mxGeometry x="375" y="135" width="120" height="90" as="geometry" />
        </mxCell>
        <mxCell id="dDj49uLqHvv3kT1G5Hj7-16" value="" style="html=1;jettySize=18;whiteSpace=wrap;fontSize=13.3;fontColor=#333333;fontStyle=1;align=center;strokeColor=#5E5E5E;strokeWidth=1.5;rounded=1;arcSize=12;edgeStyle=orthogonalEdgeStyle;startArrow=none;endArrow=block;endFill=1;exitX=0.009;exitY=0.5;exitPerimeter=0;entryX=1.009;entryY=0.5;entryPerimeter=0;lucidId=me55h58Ri0bP;" parent="1" source="dDj49uLqHvv3kT1G5Hj7-6" target="dDj49uLqHvv3kT1G5Hj7-15" edge="1">
          <mxGeometry width="100" height="100" relative="1" as="geometry">
            <Array as="points" />
          </mxGeometry>
        </mxCell>
        <mxCell id="dDj49uLqHvv3kT1G5Hj7-17" value="Sí" style="text;html=1;resizable=0;labelBackgroundColor=default;align=center;verticalAlign=middle;fontStyle=1;fontColor=#333333;fontSize=13.3;" parent="dDj49uLqHvv3kT1G5Hj7-16" vertex="1">
          <mxGeometry relative="1" as="geometry" />
        </mxCell>
        <mxCell id="dDj49uLqHvv3kT1G5Hj7-18" value="Se muestra lista clientes&#xa;&#39;datos&#39;" style="html=1;overflow=block;blockSpacing=1;whiteSpace=wrap;fontSize=16.7;fontColor=#ffffff;align=center;spacing=9;strokeColor=#3A5431;strokeOpacity=100;rounded=1;absoluteArcSize=1;arcSize=9;strokeWidth=2.3;lucidId=qe55xhQL1To1;fillColor=#6d8764;" parent="1" vertex="1">
          <mxGeometry x="375" y="375" width="120" height="90" as="geometry" />
        </mxCell>
        <mxCell id="dDj49uLqHvv3kT1G5Hj7-19" value="" style="html=1;jettySize=18;whiteSpace=wrap;fontSize=13.3;fontColor=#333333;fontStyle=1;align=center;strokeColor=#5E5E5E;strokeWidth=1.5;rounded=1;arcSize=12;edgeStyle=orthogonalEdgeStyle;startArrow=none;endArrow=block;endFill=1;exitX=0.009;exitY=0.5;exitPerimeter=0;entryX=1.009;entryY=0.5;entryPerimeter=0;lucidId=se556HhxgRKe;" parent="1" source="dDj49uLqHvv3kT1G5Hj7-8" target="dDj49uLqHvv3kT1G5Hj7-18" edge="1">
          <mxGeometry width="100" height="100" relative="1" as="geometry">
            <Array as="points" />
          </mxGeometry>
        </mxCell>
        <mxCell id="dDj49uLqHvv3kT1G5Hj7-20" value="Sí" style="text;html=1;resizable=0;labelBackgroundColor=default;align=center;verticalAlign=middle;fontStyle=1;fontColor=#333333;fontSize=13.3;" parent="dDj49uLqHvv3kT1G5Hj7-19" vertex="1">
          <mxGeometry relative="1" as="geometry" />
        </mxCell>
        <mxCell id="dDj49uLqHvv3kT1G5Hj7-84" style="edgeStyle=orthogonalEdgeStyle;rounded=0;orthogonalLoop=1;jettySize=auto;html=1;exitX=1;exitY=0.5;exitDx=0;exitDy=0;" parent="1" source="dDj49uLqHvv3kT1G5Hj7-21" edge="1">
          <mxGeometry relative="1" as="geometry">
            <mxPoint x="1180" y="291.3333333333335" as="targetPoint" />
          </mxGeometry>
        </mxCell>
        <mxCell id="dDj49uLqHvv3kT1G5Hj7-21" value="Editar cliente" style="html=1;overflow=block;blockSpacing=1;whiteSpace=wrap;rhombus;fontSize=16.7;fontColor=#000000;align=center;spacing=3.8;strokeColor=#BD7000;strokeOpacity=100;rounded=1;absoluteArcSize=1;arcSize=9;strokeWidth=2.3;lucidId=Gg55qIdvrMJk;fillColor=#f0a30a;" parent="1" vertex="1">
          <mxGeometry x="1035" y="246" width="120" height="90" as="geometry" />
        </mxCell>
        <mxCell id="dDj49uLqHvv3kT1G5Hj7-22" value="" style="html=1;jettySize=18;whiteSpace=wrap;fontSize=13;strokeColor=#5E5E5E;strokeWidth=1.5;rounded=1;arcSize=12;edgeStyle=orthogonalEdgeStyle;startArrow=none;endArrow=block;endFill=1;exitX=1.009;exitY=0.5;exitPerimeter=0;entryX=0.009;entryY=0.5;entryPerimeter=0;lucidId=Ng55FUQO6F9P;" parent="1" source="dDj49uLqHvv3kT1G5Hj7-3" target="dDj49uLqHvv3kT1G5Hj7-21" edge="1">
          <mxGeometry width="100" height="100" relative="1" as="geometry">
            <Array as="points" />
          </mxGeometry>
        </mxCell>
        <mxCell id="bucvXIIjWARCfowaOwl--29" style="edgeStyle=orthogonalEdgeStyle;rounded=0;orthogonalLoop=1;jettySize=auto;html=1;entryX=0;entryY=0.5;entryDx=0;entryDy=0;" edge="1" parent="1" source="dDj49uLqHvv3kT1G5Hj7-23" target="dDj49uLqHvv3kT1G5Hj7-79">
          <mxGeometry relative="1" as="geometry">
            <mxPoint x="1245" y="520" as="targetPoint" />
            <Array as="points">
              <mxPoint x="1245" y="510" />
            </Array>
          </mxGeometry>
        </mxCell>
        <mxCell id="bucvXIIjWARCfowaOwl--30" style="edgeStyle=orthogonalEdgeStyle;rounded=0;orthogonalLoop=1;jettySize=auto;html=1;entryX=0;entryY=0.5;entryDx=0;entryDy=0;exitX=0.436;exitY=0.022;exitDx=0;exitDy=0;exitPerimeter=0;" edge="1" parent="1" source="dDj49uLqHvv3kT1G5Hj7-23" target="dDj49uLqHvv3kT1G5Hj7-30">
          <mxGeometry relative="1" as="geometry">
            <Array as="points">
              <mxPoint x="1240" y="248" />
              <mxPoint x="1240" y="45" />
            </Array>
          </mxGeometry>
        </mxCell>
        <mxCell id="dDj49uLqHvv3kT1G5Hj7-23" value="Se muestra la tabla&#xa;(table)" style="html=1;overflow=block;blockSpacing=1;whiteSpace=wrap;fontSize=16.7;fontColor=#ffffff;align=center;spacing=9;strokeColor=#3A5431;strokeOpacity=100;rounded=1;absoluteArcSize=1;arcSize=9;strokeWidth=2.3;lucidId=3g555m2dW~YT;fillColor=#6d8764;" parent="1" vertex="1">
          <mxGeometry x="1185" y="246" width="120" height="90" as="geometry" />
        </mxCell>
        <mxCell id="dDj49uLqHvv3kT1G5Hj7-25" value="" style="html=1;jettySize=18;whiteSpace=wrap;fontSize=13;strokeColor=#5E5E5E;strokeWidth=1.5;rounded=1;arcSize=12;edgeStyle=orthogonalEdgeStyle;startArrow=none;endArrow=block;endFill=1;exitX=1.009;exitY=0.5;exitPerimeter=0;lucidId=Qi55WLSYHYra;" parent="1" source="dDj49uLqHvv3kT1G5Hj7-23" edge="1">
          <mxGeometry width="100" height="100" relative="1" as="geometry">
            <Array as="points" />
            <mxPoint x="1351" y="291" as="targetPoint" />
          </mxGeometry>
        </mxCell>
        <mxCell id="dDj49uLqHvv3kT1G5Hj7-26" value="C.Plan" style="html=1;overflow=block;blockSpacing=1;whiteSpace=wrap;rhombus;fontSize=16.7;fontColor=#000000;align=center;spacing=3.8;strokeColor=#BD7000;strokeOpacity=100;rounded=1;absoluteArcSize=1;arcSize=9;strokeWidth=2.3;lucidId=yl55B0_qdPNv;fillColor=#f0a30a;" parent="1" vertex="1">
          <mxGeometry x="1350" y="246" width="120" height="90" as="geometry" />
        </mxCell>
        <mxCell id="dDj49uLqHvv3kT1G5Hj7-27" value="Se muestra lista clientes&#xa;&#39;plan&#39;" style="html=1;overflow=block;blockSpacing=1;whiteSpace=wrap;fontSize=16.7;fontColor=#ffffff;align=center;spacing=9;strokeColor=#3A5431;strokeOpacity=100;rounded=1;absoluteArcSize=1;arcSize=9;strokeWidth=2.3;lucidId=Cl55v5GDEzzv;fillColor=#6d8764;" parent="1" vertex="1">
          <mxGeometry x="1530" y="246" width="120" height="90" as="geometry" />
        </mxCell>
        <mxCell id="dDj49uLqHvv3kT1G5Hj7-28" value="" style="html=1;jettySize=18;whiteSpace=wrap;fontSize=13.3;fontColor=#333333;fontStyle=1;align=center;strokeColor=#5E5E5E;strokeWidth=1.5;rounded=1;arcSize=12;edgeStyle=orthogonalEdgeStyle;startArrow=none;endArrow=block;endFill=1;exitX=0.991;exitY=0.5;exitPerimeter=0;entryX=-0.009;entryY=0.5;entryPerimeter=0;lucidId=Ml55k2Och.zE;" parent="1" source="dDj49uLqHvv3kT1G5Hj7-26" target="dDj49uLqHvv3kT1G5Hj7-27" edge="1">
          <mxGeometry width="100" height="100" relative="1" as="geometry">
            <Array as="points" />
          </mxGeometry>
        </mxCell>
        <mxCell id="dDj49uLqHvv3kT1G5Hj7-29" value="Sí" style="text;html=1;resizable=0;labelBackgroundColor=default;align=center;verticalAlign=middle;fontStyle=1;fontColor=#333333;fontSize=13.3;" parent="dDj49uLqHvv3kT1G5Hj7-28" vertex="1">
          <mxGeometry relative="1" as="geometry" />
        </mxCell>
        <mxCell id="dDj49uLqHvv3kT1G5Hj7-30" value="C.pagos" style="html=1;overflow=block;blockSpacing=1;whiteSpace=wrap;rhombus;fontSize=16.7;fontColor=#000000;align=center;spacing=3.8;strokeColor=#BD7000;strokeOpacity=100;rounded=1;absoluteArcSize=1;arcSize=9;strokeWidth=2.3;lucidId=Tl55Qcyh_-M2;fillColor=#f0a30a;" parent="1" vertex="1">
          <mxGeometry x="1350" width="120" height="90" as="geometry" />
        </mxCell>
        <mxCell id="dDj49uLqHvv3kT1G5Hj7-31" value="Se muestra lista clientes&#xa;&#39;pagos&#39;" style="html=1;overflow=block;blockSpacing=1;whiteSpace=wrap;fontSize=16.7;fontColor=#ffffff;align=center;spacing=9;strokeColor=#3A5431;strokeOpacity=100;rounded=1;absoluteArcSize=1;arcSize=9;strokeWidth=2.3;lucidId=Xl55kkd5n7LN;fillColor=#6d8764;" parent="1" vertex="1">
          <mxGeometry x="1530" width="120" height="90" as="geometry" />
        </mxCell>
        <mxCell id="dDj49uLqHvv3kT1G5Hj7-33" value="&lt;div style=&quot;display: flex; justify-content: center; text-align: center; align-items: baseline; font-size: 0; line-height: 1.25;margin-top: -2px;&quot;&gt;&lt;span&gt;&lt;a href=&quot;http://C.datos&quot;&gt;&lt;span style=&quot;font-size:16.7px;color:#333333;&quot;&gt;C.datos&lt;/span&gt;&lt;/a&gt;&lt;/span&gt;&lt;/div&gt;" style="html=1;overflow=block;blockSpacing=1;whiteSpace=wrap;rhombus;fontSize=13;spacing=3.8;strokeColor=#BD7000;strokeOpacity=100;rounded=1;absoluteArcSize=1;arcSize=9;strokeWidth=2.3;lucidId=4l551dDsu_Oj;fillColor=#f0a30a;fontColor=#000000;" parent="1" vertex="1">
          <mxGeometry x="1350" y="465" width="120" height="90" as="geometry" />
        </mxCell>
        <mxCell id="dDj49uLqHvv3kT1G5Hj7-34" value="Se muestra lista clientes&#xa;&#39;datos&#39;" style="html=1;overflow=block;blockSpacing=1;whiteSpace=wrap;fontSize=16.7;fontColor=#ffffff;align=center;spacing=9;strokeColor=#3A5431;strokeOpacity=100;rounded=1;absoluteArcSize=1;arcSize=9;strokeWidth=2.3;lucidId=6l55W46asn15;fillColor=#6d8764;" parent="1" vertex="1">
          <mxGeometry x="1530" y="465" width="120" height="90" as="geometry" />
        </mxCell>
        <mxCell id="dDj49uLqHvv3kT1G5Hj7-39" value="¿Modificar?" style="html=1;overflow=block;blockSpacing=1;whiteSpace=wrap;rhombus;fontSize=16.7;fontColor=#333333;align=center;spacing=3.8;strokeColor=#5e5e5e;strokeOpacity=100;rounded=1;absoluteArcSize=1;arcSize=9;strokeWidth=2.3;lucidId=Io55EITyy6AK;" parent="1" vertex="1">
          <mxGeometry x="1710" y="246" width="120" height="90" as="geometry" />
        </mxCell>
        <mxCell id="dDj49uLqHvv3kT1G5Hj7-40" value="" style="html=1;jettySize=18;whiteSpace=wrap;fontSize=13;strokeColor=#5E5E5E;strokeWidth=1.5;rounded=1;arcSize=12;edgeStyle=orthogonalEdgeStyle;startArrow=none;endArrow=block;endFill=1;exitX=1.009;exitY=0.5;exitPerimeter=0;entryX=0.009;entryY=0.5;entryPerimeter=0;lucidId=No55PuJ4~8nF;" parent="1" source="dDj49uLqHvv3kT1G5Hj7-27" target="dDj49uLqHvv3kT1G5Hj7-39" edge="1">
          <mxGeometry width="100" height="100" relative="1" as="geometry">
            <Array as="points" />
          </mxGeometry>
        </mxCell>
        <mxCell id="dDj49uLqHvv3kT1G5Hj7-41" value="&lt;div style=&quot;display: flex; justify-content: center; text-align: center; align-items: baseline; font-size: 0; line-height: 1.25;margin-top: -2px;&quot;&gt;&lt;span&gt;&lt;span style=&quot;font-size:16.7px;color:#333333;&quot;&gt;Cuando se edite se va a poder eliminar datos y esto valores null tambien se van a poder guardar ya que no son obligatorios.&#xa;&lt;/span&gt;&lt;/span&gt;&lt;/div&gt;&lt;div style=&quot;display: flex; justify-content: center; text-align: center; align-items: baseline; font-size: 0; line-height: 1.25;margin-top: -2px;&quot;&gt;&lt;span&gt;&lt;/span&gt;&lt;/div&gt;" style="html=1;overflow=block;blockSpacing=1;whiteSpace=wrap;fontSize=13;spacing=3.8;strokeColor=#B09500;strokeOpacity=100;rounded=1;absoluteArcSize=1;arcSize=9;strokeWidth=2.3;lucidId=zp55m-ZHFCEl;fillColor=#e3c800;fontColor=#000000;" parent="1" vertex="1">
          <mxGeometry x="1580" y="720" width="302" height="189" as="geometry" />
        </mxCell>
        <mxCell id="dDj49uLqHvv3kT1G5Hj7-42" value="" style="html=1;jettySize=18;whiteSpace=wrap;fontSize=13.3;fontColor=#333333;fontStyle=1;align=center;strokeColor=#2D7600;strokeWidth=1.5;rounded=1;arcSize=12;edgeStyle=orthogonalEdgeStyle;startArrow=none;endArrow=block;endFill=1;exitX=0.991;exitY=0.5;exitPerimeter=0;lucidId=br55oeqAaXvw;fillColor=#60a917;" parent="1" source="dDj49uLqHvv3kT1G5Hj7-39" edge="1">
          <mxGeometry width="100" height="100" relative="1" as="geometry">
            <Array as="points" />
            <mxPoint x="1905" y="291" as="targetPoint" />
          </mxGeometry>
        </mxCell>
        <mxCell id="dDj49uLqHvv3kT1G5Hj7-43" value="Sí" style="text;html=1;resizable=0;labelBackgroundColor=default;align=center;verticalAlign=middle;fontStyle=1;fontColor=#333333;fontSize=13.3;" parent="dDj49uLqHvv3kT1G5Hj7-42" vertex="1">
          <mxGeometry relative="1" as="geometry" />
        </mxCell>
        <mxCell id="dDj49uLqHvv3kT1G5Hj7-44" value="Se muestran los datos del cliente en una tabla o form" style="html=1;overflow=block;blockSpacing=1;whiteSpace=wrap;fontSize=16.7;fontColor=#ffffff;align=center;spacing=9;strokeColor=#3A5431;strokeOpacity=100;rounded=1;absoluteArcSize=1;arcSize=9;strokeWidth=2.3;lucidId=lr55~o0DpjFW;fillColor=#6d8764;" parent="1" vertex="1">
          <mxGeometry x="1905" y="232" width="120" height="118" as="geometry" />
        </mxCell>
        <mxCell id="dDj49uLqHvv3kT1G5Hj7-45" value="" style="html=1;jettySize=18;whiteSpace=wrap;fontSize=13.3;fontColor=#333333;fontStyle=1;align=center;strokeColor=#6F0000;strokeWidth=1.5;rounded=1;arcSize=12;edgeStyle=orthogonalEdgeStyle;startArrow=none;endArrow=block;endFill=1;exitX=0.5;exitY=0.004;exitPerimeter=0;entryX=0.5;entryY=-0.012;entryPerimeter=0;lucidId=Br55GFbkZhTN;fillColor=#a20025;" parent="1" source="dDj49uLqHvv3kT1G5Hj7-39" target="dDj49uLqHvv3kT1G5Hj7-27" edge="1">
          <mxGeometry width="100" height="100" relative="1" as="geometry">
            <Array as="points">
              <mxPoint x="1770" y="210" />
              <mxPoint x="1590" y="210" />
            </Array>
          </mxGeometry>
        </mxCell>
        <mxCell id="dDj49uLqHvv3kT1G5Hj7-46" value="No" style="text;html=1;resizable=0;labelBackgroundColor=default;align=center;verticalAlign=middle;fontStyle=1;fontColor=#333333;fontSize=13.3;" parent="dDj49uLqHvv3kT1G5Hj7-45" vertex="1">
          <mxGeometry relative="1" as="geometry" />
        </mxCell>
        <mxCell id="dDj49uLqHvv3kT1G5Hj7-47" value="" style="html=1;jettySize=18;whiteSpace=wrap;fontSize=13;strokeColor=#5E5E5E;strokeWidth=1.5;rounded=1;arcSize=12;edgeStyle=orthogonalEdgeStyle;startArrow=none;endArrow=block;endFill=1;exitX=1.009;exitY=0.5;exitPerimeter=0;entryX=0.009;entryY=0.5;entryPerimeter=0;lucidId=Xr55lcVk.tQ_;" parent="1" source="dDj49uLqHvv3kT1G5Hj7-44" target="dDj49uLqHvv3kT1G5Hj7-48" edge="1">
          <mxGeometry width="100" height="100" relative="1" as="geometry">
            <Array as="points" />
          </mxGeometry>
        </mxCell>
        <mxCell id="dDj49uLqHvv3kT1G5Hj7-48" value="¿Quiere guardar los datos?" style="html=1;overflow=block;blockSpacing=1;whiteSpace=wrap;rhombus;fontSize=16.7;fontColor=#000000;align=center;spacing=3.8;strokeColor=#BD7000;strokeOpacity=100;rounded=1;absoluteArcSize=1;arcSize=9;strokeWidth=2.3;lucidId=0r555tiMq7A_;fillColor=#f0a30a;" parent="1" vertex="1">
          <mxGeometry x="2085" y="246" width="180" height="90" as="geometry" />
        </mxCell>
        <mxCell id="dDj49uLqHvv3kT1G5Hj7-49" value="" style="html=1;jettySize=18;whiteSpace=wrap;fontSize=13.3;fontColor=#333333;fontStyle=1;align=center;strokeColor=#2D7600;strokeWidth=1.5;rounded=1;arcSize=12;edgeStyle=orthogonalEdgeStyle;startArrow=none;endArrow=block;endFill=1;exitX=0.5;exitY=1.001;exitPerimeter=0;entryX=0.5;entryY=1.012;entryPerimeter=0;lucidId=Ks55QKrB9KBl;fillColor=#60a917;" parent="1" source="dDj49uLqHvv3kT1G5Hj7-48" target="dDj49uLqHvv3kT1G5Hj7-27" edge="1">
          <mxGeometry width="100" height="100" relative="1" as="geometry">
            <Array as="points">
              <mxPoint x="2175" y="360" />
              <mxPoint x="1590" y="360" />
            </Array>
          </mxGeometry>
        </mxCell>
        <mxCell id="dDj49uLqHvv3kT1G5Hj7-51" value="Sí" style="text;html=1;resizable=0;labelBackgroundColor=default;align=center;verticalAlign=middle;fontStyle=1;fontColor=#333333;fontSize=13.3;" parent="dDj49uLqHvv3kT1G5Hj7-49" vertex="1">
          <mxGeometry relative="1" as="geometry" />
        </mxCell>
        <mxCell id="dDj49uLqHvv3kT1G5Hj7-50" value="Se modifico correctamente" style="text;html=1;resizable=0;labelBackgroundColor=default;align=center;verticalAlign=middle;fontStyle=1;fontColor=#333333;fontSize=13.3;" parent="dDj49uLqHvv3kT1G5Hj7-49" vertex="1">
          <mxGeometry x="0.44742065646397955" relative="1" as="geometry">
            <mxPoint x="-1" as="offset" />
          </mxGeometry>
        </mxCell>
        <mxCell id="dDj49uLqHvv3kT1G5Hj7-52" value="" style="html=1;jettySize=18;whiteSpace=wrap;fontSize=13.3;fontColor=#333333;fontStyle=1;align=center;strokeColor=#B20000;strokeWidth=1.5;rounded=1;arcSize=12;edgeStyle=orthogonalEdgeStyle;startArrow=none;endArrow=block;endFill=1;exitX=0.5;exitY=-0.001;exitPerimeter=0;entryX=0.5;entryY=-0.01;entryPerimeter=0;lucidId=Qs55kY9ZGcJA;fillColor=#e51400;" parent="1" source="dDj49uLqHvv3kT1G5Hj7-48" target="dDj49uLqHvv3kT1G5Hj7-44" edge="1">
          <mxGeometry width="100" height="100" relative="1" as="geometry">
            <Array as="points">
              <mxPoint x="2175" y="190" />
              <mxPoint x="1965" y="190" />
            </Array>
          </mxGeometry>
        </mxCell>
        <mxCell id="dDj49uLqHvv3kT1G5Hj7-53" value="No" style="text;html=1;resizable=0;labelBackgroundColor=default;align=center;verticalAlign=middle;fontStyle=1;fontColor=#333333;fontSize=13.3;" parent="dDj49uLqHvv3kT1G5Hj7-52" vertex="1">
          <mxGeometry relative="1" as="geometry" />
        </mxCell>
        <mxCell id="dDj49uLqHvv3kT1G5Hj7-54" value="" style="html=1;jettySize=18;whiteSpace=wrap;fontSize=13.3;fontColor=#333333;fontStyle=1;align=center;strokeColor=#2D7600;strokeWidth=1.5;rounded=1;arcSize=12;edgeStyle=orthogonalEdgeStyle;startArrow=none;endArrow=block;endFill=1;exitX=0.991;exitY=0.5;exitPerimeter=0;entryX=-0.009;entryY=0.5;entryPerimeter=0;lucidId=1u55vM6VGVHL;fillColor=#60a917;" parent="1" source="dDj49uLqHvv3kT1G5Hj7-33" target="dDj49uLqHvv3kT1G5Hj7-34" edge="1">
          <mxGeometry width="100" height="100" relative="1" as="geometry">
            <Array as="points" />
          </mxGeometry>
        </mxCell>
        <mxCell id="dDj49uLqHvv3kT1G5Hj7-55" value="Sí" style="text;html=1;resizable=0;labelBackgroundColor=default;align=center;verticalAlign=middle;fontStyle=1;fontColor=#333333;fontSize=13.3;" parent="dDj49uLqHvv3kT1G5Hj7-54" vertex="1">
          <mxGeometry relative="1" as="geometry" />
        </mxCell>
        <mxCell id="dDj49uLqHvv3kT1G5Hj7-56" value="¿Modificar?" style="html=1;overflow=block;blockSpacing=1;whiteSpace=wrap;rhombus;fontSize=16.7;fontColor=#333333;align=center;spacing=3.8;strokeColor=#5e5e5e;strokeOpacity=100;rounded=1;absoluteArcSize=1;arcSize=9;strokeWidth=2.3;lucidId=7u550R7GL__U;" parent="1" vertex="1">
          <mxGeometry x="1710" y="465" width="120" height="90" as="geometry" />
        </mxCell>
        <mxCell id="dDj49uLqHvv3kT1G5Hj7-57" value="" style="html=1;jettySize=18;whiteSpace=wrap;fontSize=13;strokeColor=#5E5E5E;strokeWidth=1.5;rounded=1;arcSize=12;edgeStyle=orthogonalEdgeStyle;startArrow=none;endArrow=block;endFill=1;exitX=1.009;exitY=0.5;exitPerimeter=0;entryX=0.009;entryY=0.5;entryPerimeter=0;lucidId=_u55Tslefrtf;" parent="1" source="dDj49uLqHvv3kT1G5Hj7-34" target="dDj49uLqHvv3kT1G5Hj7-56" edge="1">
          <mxGeometry width="100" height="100" relative="1" as="geometry">
            <Array as="points" />
          </mxGeometry>
        </mxCell>
        <mxCell id="dDj49uLqHvv3kT1G5Hj7-58" value="Se muestran los datos del cliente en una tabla o form" style="html=1;overflow=block;blockSpacing=1;whiteSpace=wrap;fontSize=16.7;fontColor=#ffffff;align=center;spacing=9;strokeColor=#3A5431;strokeOpacity=100;rounded=1;absoluteArcSize=1;arcSize=9;strokeWidth=2.3;lucidId=av55JHJT0r.n;fillColor=#6d8764;" parent="1" vertex="1">
          <mxGeometry x="1905" y="451" width="120" height="118" as="geometry" />
        </mxCell>
        <mxCell id="dDj49uLqHvv3kT1G5Hj7-59" value="" style="html=1;jettySize=18;whiteSpace=wrap;fontSize=13.3;fontColor=#333333;fontStyle=1;align=center;strokeColor=#2D7600;strokeWidth=1.5;rounded=1;arcSize=12;edgeStyle=orthogonalEdgeStyle;startArrow=none;endArrow=block;endFill=1;exitX=0.991;exitY=0.5;exitPerimeter=0;entryX=-0.009;entryY=0.5;entryPerimeter=0;lucidId=fv55L3Kyko3t;fillColor=#60a917;" parent="1" source="dDj49uLqHvv3kT1G5Hj7-56" target="dDj49uLqHvv3kT1G5Hj7-58" edge="1">
          <mxGeometry width="100" height="100" relative="1" as="geometry">
            <Array as="points" />
          </mxGeometry>
        </mxCell>
        <mxCell id="dDj49uLqHvv3kT1G5Hj7-60" value="Sí" style="text;html=1;resizable=0;labelBackgroundColor=default;align=center;verticalAlign=middle;fontStyle=1;fontColor=#333333;fontSize=13.3;" parent="dDj49uLqHvv3kT1G5Hj7-59" vertex="1">
          <mxGeometry relative="1" as="geometry" />
        </mxCell>
        <mxCell id="dDj49uLqHvv3kT1G5Hj7-61" value="¿Quiere guardar los datos?" style="html=1;overflow=block;blockSpacing=1;whiteSpace=wrap;rhombus;fontSize=16.7;fontColor=#000000;align=center;spacing=3.8;strokeColor=#BD7000;strokeOpacity=100;rounded=1;absoluteArcSize=1;arcSize=9;strokeWidth=2.3;lucidId=kv55Be7nvd3.;fillColor=#f0a30a;" parent="1" vertex="1">
          <mxGeometry x="2085" y="465" width="180" height="90" as="geometry" />
        </mxCell>
        <mxCell id="dDj49uLqHvv3kT1G5Hj7-62" value="" style="html=1;jettySize=18;whiteSpace=wrap;fontSize=13;strokeColor=#5E5E5E;strokeWidth=1.5;rounded=1;arcSize=12;edgeStyle=orthogonalEdgeStyle;startArrow=none;endArrow=block;endFill=1;exitX=1.009;exitY=0.5;exitPerimeter=0;entryX=0.009;entryY=0.5;entryPerimeter=0;lucidId=lv55oQmMOr_8;" parent="1" source="dDj49uLqHvv3kT1G5Hj7-58" target="dDj49uLqHvv3kT1G5Hj7-61" edge="1">
          <mxGeometry width="100" height="100" relative="1" as="geometry">
            <Array as="points" />
          </mxGeometry>
        </mxCell>
        <mxCell id="dDj49uLqHvv3kT1G5Hj7-63" value="" style="html=1;jettySize=18;whiteSpace=wrap;fontSize=13.3;fontColor=#333333;fontStyle=1;align=center;strokeColor=#2D7600;strokeWidth=1.5;rounded=1;arcSize=12;edgeStyle=orthogonalEdgeStyle;startArrow=none;endArrow=block;endFill=1;exitX=0.5;exitY=1.001;exitPerimeter=0;entryX=0.5;entryY=1.012;entryPerimeter=0;lucidId=tv55cgEvOoeQ;fillColor=#60a917;" parent="1" source="dDj49uLqHvv3kT1G5Hj7-61" target="dDj49uLqHvv3kT1G5Hj7-34" edge="1">
          <mxGeometry width="100" height="100" relative="1" as="geometry">
            <Array as="points">
              <mxPoint x="2175" y="600" />
              <mxPoint x="1590" y="600" />
            </Array>
          </mxGeometry>
        </mxCell>
        <mxCell id="dDj49uLqHvv3kT1G5Hj7-64" value="Sí" style="text;html=1;resizable=0;labelBackgroundColor=default;align=center;verticalAlign=middle;fontStyle=1;fontColor=#333333;fontSize=13.3;" parent="dDj49uLqHvv3kT1G5Hj7-63" vertex="1">
          <mxGeometry relative="1" as="geometry" />
        </mxCell>
        <mxCell id="dDj49uLqHvv3kT1G5Hj7-65" value="" style="html=1;jettySize=18;whiteSpace=wrap;fontSize=13.3;fontColor=#333333;fontStyle=1;align=center;strokeColor=#6F0000;strokeWidth=1.5;rounded=1;arcSize=12;edgeStyle=orthogonalEdgeStyle;startArrow=none;endArrow=block;endFill=1;exitX=0.5;exitY=-0.001;exitPerimeter=0;entryX=0.5;entryY=-0.01;entryPerimeter=0;lucidId=vv55FnWkqyqp;fillColor=#a20025;" parent="1" source="dDj49uLqHvv3kT1G5Hj7-61" target="dDj49uLqHvv3kT1G5Hj7-58" edge="1">
          <mxGeometry width="100" height="100" relative="1" as="geometry">
            <Array as="points">
              <mxPoint x="2175" y="430" />
              <mxPoint x="1965" y="430" />
            </Array>
          </mxGeometry>
        </mxCell>
        <mxCell id="dDj49uLqHvv3kT1G5Hj7-66" value="No" style="text;html=1;resizable=0;labelBackgroundColor=default;align=center;verticalAlign=middle;fontStyle=1;fontColor=#333333;fontSize=13.3;" parent="dDj49uLqHvv3kT1G5Hj7-65" vertex="1">
          <mxGeometry relative="1" as="geometry" />
        </mxCell>
        <mxCell id="dDj49uLqHvv3kT1G5Hj7-67" value="" style="html=1;jettySize=18;whiteSpace=wrap;fontSize=13.3;fontColor=#333333;fontStyle=1;align=center;strokeColor=#6F0000;strokeWidth=1.5;rounded=1;arcSize=12;edgeStyle=orthogonalEdgeStyle;startArrow=none;endArrow=block;endFill=1;exitX=0.5;exitY=0.004;exitPerimeter=0;entryX=0.5;entryY=-0.012;entryPerimeter=0;lucidId=Av55fH7Ca_Xi;fillColor=#a20025;" parent="1" source="dDj49uLqHvv3kT1G5Hj7-56" target="dDj49uLqHvv3kT1G5Hj7-34" edge="1">
          <mxGeometry width="100" height="100" relative="1" as="geometry">
            <Array as="points">
              <mxPoint x="1770" y="447" />
              <mxPoint x="1590" y="447" />
            </Array>
          </mxGeometry>
        </mxCell>
        <mxCell id="dDj49uLqHvv3kT1G5Hj7-68" value="No" style="text;html=1;resizable=0;labelBackgroundColor=default;align=center;verticalAlign=middle;fontStyle=1;fontColor=#333333;fontSize=13.3;" parent="dDj49uLqHvv3kT1G5Hj7-67" vertex="1">
          <mxGeometry relative="1" as="geometry" />
        </mxCell>
        <mxCell id="dDj49uLqHvv3kT1G5Hj7-69" value="" style="html=1;jettySize=18;whiteSpace=wrap;fontSize=13.3;fontColor=#333333;fontStyle=1;align=center;strokeColor=#2D7600;strokeWidth=1.5;rounded=1;arcSize=12;edgeStyle=orthogonalEdgeStyle;startArrow=none;endArrow=block;endFill=1;exitX=0.991;exitY=0.5;exitPerimeter=0;entryX=-0.009;entryY=0.5;entryPerimeter=0;lucidId=Yv5582wAAS0k;fillColor=#60a917;" parent="1" source="dDj49uLqHvv3kT1G5Hj7-30" target="dDj49uLqHvv3kT1G5Hj7-31" edge="1">
          <mxGeometry width="100" height="100" relative="1" as="geometry">
            <Array as="points" />
          </mxGeometry>
        </mxCell>
        <mxCell id="dDj49uLqHvv3kT1G5Hj7-70" value="Sí" style="text;html=1;resizable=0;labelBackgroundColor=default;align=center;verticalAlign=middle;fontStyle=1;fontColor=#333333;fontSize=13.3;" parent="dDj49uLqHvv3kT1G5Hj7-69" vertex="1">
          <mxGeometry relative="1" as="geometry" />
        </mxCell>
        <mxCell id="dDj49uLqHvv3kT1G5Hj7-71" value="¿Modificar?" style="html=1;overflow=block;blockSpacing=1;whiteSpace=wrap;rhombus;fontSize=16.7;fontColor=#333333;align=center;spacing=3.8;strokeColor=#5e5e5e;strokeOpacity=100;rounded=1;absoluteArcSize=1;arcSize=9;strokeWidth=2.3;lucidId=YD55sORHHWta;" parent="1" vertex="1">
          <mxGeometry x="1710" width="120" height="90" as="geometry" />
        </mxCell>
        <mxCell id="dDj49uLqHvv3kT1G5Hj7-72" value="" style="html=1;jettySize=18;whiteSpace=wrap;fontSize=13;strokeColor=#666666;strokeWidth=1.5;rounded=1;arcSize=12;edgeStyle=orthogonalEdgeStyle;startArrow=none;endArrow=block;endFill=1;exitX=1.009;exitY=0.5;exitPerimeter=0;entryX=0.009;entryY=0.5;entryPerimeter=0;lucidId=0D55Nw3KMfFY;fillColor=#f5f5f5;" parent="1" source="dDj49uLqHvv3kT1G5Hj7-31" target="dDj49uLqHvv3kT1G5Hj7-71" edge="1">
          <mxGeometry width="100" height="100" relative="1" as="geometry">
            <Array as="points" />
          </mxGeometry>
        </mxCell>
        <mxCell id="dDj49uLqHvv3kT1G5Hj7-73" value="¿Quiere guardar los datos?" style="html=1;overflow=block;blockSpacing=1;whiteSpace=wrap;rhombus;fontSize=16.7;fontColor=#333333;align=center;spacing=3.8;strokeColor=#5e5e5e;strokeOpacity=100;rounded=1;absoluteArcSize=1;arcSize=9;strokeWidth=2.3;lucidId=7D55usRnj7SK;" parent="1" vertex="1">
          <mxGeometry x="2070" width="180" height="90" as="geometry" />
        </mxCell>
        <mxCell id="dDj49uLqHvv3kT1G5Hj7-74" value="Se muestran los datos del cliente en una tabla o form" style="html=1;overflow=block;blockSpacing=1;whiteSpace=wrap;fontSize=16.7;fontColor=#ffffff;align=center;spacing=9;strokeColor=#3A5431;strokeOpacity=100;rounded=1;absoluteArcSize=1;arcSize=9;strokeWidth=2.3;lucidId=-D55U-WqqMTX;fillColor=#6d8764;" parent="1" vertex="1">
          <mxGeometry x="1905" y="-14" width="120" height="118" as="geometry" />
        </mxCell>
        <mxCell id="dDj49uLqHvv3kT1G5Hj7-79" value="&lt;div style=&quot;display: flex; justify-content: center; text-align: center; align-items: baseline; font-size: 0; line-height: 1.25;margin-top: -2px;&quot;&gt;&lt;span&gt;&lt;a href=&quot;http://C.datos&quot;&gt;&lt;span style=&quot;font-size:16.7px;color:#333333;&quot;&gt;C.datos&lt;/span&gt;&lt;/a&gt;&lt;/span&gt;&lt;/div&gt;" style="html=1;overflow=block;blockSpacing=1;whiteSpace=wrap;rhombus;fontSize=13;spacing=3.8;strokeColor=#BD7000;strokeOpacity=100;rounded=1;absoluteArcSize=1;arcSize=9;strokeWidth=2.3;lucidId=4l551dDsu_Oj;fillColor=#f0a30a;fontColor=#000000;" parent="1" vertex="1">
          <mxGeometry x="1350" y="465" width="120" height="90" as="geometry" />
        </mxCell>
        <mxCell id="dDj49uLqHvv3kT1G5Hj7-80" value="¿Modificar?" style="html=1;overflow=block;blockSpacing=1;whiteSpace=wrap;rhombus;fontSize=16.7;fontColor=#000000;align=center;spacing=3.8;strokeColor=#BD7000;strokeOpacity=100;rounded=1;absoluteArcSize=1;arcSize=9;strokeWidth=2.3;lucidId=YD55sORHHWta;fillColor=#f0a30a;" parent="1" vertex="1">
          <mxGeometry x="1710" width="120" height="90" as="geometry" />
        </mxCell>
        <mxCell id="dDj49uLqHvv3kT1G5Hj7-81" value="¿Modificar?" style="html=1;overflow=block;blockSpacing=1;whiteSpace=wrap;rhombus;fontSize=16.7;fontColor=#000000;align=center;spacing=3.8;strokeColor=#BD7000;strokeOpacity=100;rounded=1;absoluteArcSize=1;arcSize=9;strokeWidth=2.3;lucidId=Io55EITyy6AK;fillColor=#f0a30a;" parent="1" vertex="1">
          <mxGeometry x="1710" y="246" width="120" height="90" as="geometry" />
        </mxCell>
        <mxCell id="dDj49uLqHvv3kT1G5Hj7-82" value="¿Modificar?" style="html=1;overflow=block;blockSpacing=1;whiteSpace=wrap;rhombus;fontSize=16.7;fontColor=#000000;align=center;spacing=3.8;strokeColor=#BD7000;strokeOpacity=100;rounded=1;absoluteArcSize=1;arcSize=9;strokeWidth=2.3;lucidId=7u550R7GL__U;fillColor=#f0a30a;" parent="1" vertex="1">
          <mxGeometry x="1710" y="465" width="120" height="90" as="geometry" />
        </mxCell>
        <mxCell id="bucvXIIjWARCfowaOwl--2" style="edgeStyle=orthogonalEdgeStyle;rounded=0;orthogonalLoop=1;jettySize=auto;html=1;exitX=0.5;exitY=0;exitDx=0;exitDy=0;entryX=0.5;entryY=0;entryDx=0;entryDy=0;fillColor=#008a00;strokeColor=#005700;" edge="1" parent="1" source="dDj49uLqHvv3kT1G5Hj7-83" target="dDj49uLqHvv3kT1G5Hj7-31">
          <mxGeometry relative="1" as="geometry">
            <Array as="points">
              <mxPoint x="2160" y="-70" />
              <mxPoint x="1590" y="-70" />
            </Array>
          </mxGeometry>
        </mxCell>
        <mxCell id="dDj49uLqHvv3kT1G5Hj7-83" value="¿Quiere guardar los datos?" style="html=1;overflow=block;blockSpacing=1;whiteSpace=wrap;rhombus;fontSize=16.7;fontColor=#000000;align=center;spacing=3.8;strokeColor=#BD7000;strokeOpacity=100;rounded=1;absoluteArcSize=1;arcSize=9;strokeWidth=2.3;lucidId=7D55usRnj7SK;fillColor=#f0a30a;" parent="1" vertex="1">
          <mxGeometry x="2070" width="180" height="90" as="geometry" />
        </mxCell>
        <mxCell id="bucvXIIjWARCfowaOwl--5" value="" style="html=1;jettySize=18;whiteSpace=wrap;fontSize=13.3;fontColor=#333333;fontStyle=1;align=center;strokeColor=#2D7600;strokeWidth=1.5;rounded=1;arcSize=12;edgeStyle=orthogonalEdgeStyle;startArrow=none;endArrow=block;endFill=1;exitX=0.991;exitY=0.5;exitPerimeter=0;entryX=-0.009;entryY=0.5;entryPerimeter=0;lucidId=gE558dvJ28Rm;fillColor=#60a917;" edge="1" parent="1">
          <mxGeometry width="100" height="100" relative="1" as="geometry">
            <Array as="points" />
            <mxPoint x="1829" y="45" as="sourcePoint" />
            <mxPoint x="1904" y="45" as="targetPoint" />
          </mxGeometry>
        </mxCell>
        <mxCell id="bucvXIIjWARCfowaOwl--6" value="Sí" style="text;html=1;resizable=0;labelBackgroundColor=default;align=center;verticalAlign=middle;fontStyle=1;fontColor=#333333;fontSize=13.3;" vertex="1" parent="bucvXIIjWARCfowaOwl--5">
          <mxGeometry relative="1" as="geometry" />
        </mxCell>
        <mxCell id="bucvXIIjWARCfowaOwl--7" value="Sí" style="text;html=1;resizable=0;labelBackgroundColor=default;align=center;verticalAlign=middle;fontStyle=1;fontColor=#333333;fontSize=13.3;" vertex="1" parent="1">
          <mxGeometry x="1877.3333333333335" y="55.00000000000023" as="geometry">
            <mxPoint x="-3" y="-128" as="offset" />
          </mxGeometry>
        </mxCell>
        <mxCell id="bucvXIIjWARCfowaOwl--12" value="" style="edgeStyle=orthogonalEdgeStyle;rounded=0;orthogonalLoop=1;jettySize=auto;html=1;exitX=0.5;exitY=1;exitDx=0;exitDy=0;fillColor=#a20025;strokeColor=#6F0000;" edge="1" parent="1" source="dDj49uLqHvv3kT1G5Hj7-83">
          <mxGeometry relative="1" as="geometry">
            <mxPoint x="2160" y="90" as="sourcePoint" />
            <mxPoint x="1970" y="110" as="targetPoint" />
            <Array as="points">
              <mxPoint x="2160" y="140" />
              <mxPoint x="1965" y="140" />
            </Array>
          </mxGeometry>
        </mxCell>
        <mxCell id="bucvXIIjWARCfowaOwl--8" value="No" style="text;html=1;resizable=0;labelBackgroundColor=default;align=center;verticalAlign=middle;fontStyle=1;fontColor=#333333;fontSize=13.3;" vertex="1" parent="1">
          <mxGeometry x="2069.9966666666664" y="190" as="geometry">
            <mxPoint x="-8" y="-52" as="offset" />
          </mxGeometry>
        </mxCell>
        <mxCell id="bucvXIIjWARCfowaOwl--18" value="Alerta por si un cliente esta vencido o le falta poco para vencer o tiene fecha limiete para algo&lt;br&gt;" style="rounded=1;whiteSpace=wrap;html=1;fillColor=#a20025;fontColor=#ffffff;strokeColor=#6F0000;" vertex="1" parent="1">
          <mxGeometry x="165" y="30" width="120" height="96" as="geometry" />
        </mxCell>
        <mxCell id="bucvXIIjWARCfowaOwl--20" value="Mensaje para avisar al cliente" style="rounded=1;whiteSpace=wrap;html=1;fillColor=#a20025;fontColor=#ffffff;strokeColor=#6F0000;" vertex="1" parent="1">
          <mxGeometry x="20.000000000000227" y="40.00000000000023" width="120" height="60" as="geometry" />
        </mxCell>
      </root>
    </mxGraphModel>
  </diagram>
</mxfile>
